<?xml version="1.0" encoding="UTF-8"?>
<svg xmlns="http://www.w3.org/2000/svg" version="1.1" viewBox="0 0 841.89 595.28">
  <defs>
    <style>
      .cls-1 {
        fill: #c5d92d;
      }
    </style>
  </defs>
  <!-- Generator: Adobe Illustrator 28.6.0, SVG Export Plug-In . SVG Version: 1.2.0 Build 709)  -->
  <g>
    <g id="Layer_1">
      <g>
        <path class="cls-1" d="M309.59,189.98h-14.82c-1.55,0-2.81-1.26-2.81-2.81v-17.06c0-1.55,1.26-2.81,2.81-2.81h14.82c1.55,0,2.81,1.26,2.81,2.81v17.06c0,1.55-1.26,2.81-2.81,2.81ZM294.77,168.42c-.93,0-1.68.76-1.68,1.68v17.06c0,.93.76,1.68,1.68,1.68h14.82c.93,0,1.68-.76,1.68-1.68v-17.06c0-.93-.76-1.68-1.68-1.68h-14.82Z"/>
        <path class="cls-1" d="M307.14,170.31c-1.24,0-2.25,1.01-2.25,2.25s1.01,2.25,2.25,2.25,2.25-1.01,2.25-2.25-1.01-2.25-2.25-2.25ZM307.14,173.68c-.62,0-1.12-.5-1.12-1.12s.5-1.12,1.12-1.12,1.12.5,1.12,1.12-.5,1.12-1.12,1.12Z"/>
        <path class="cls-1" d="M297.22,170.31c-1.24,0-2.25,1.01-2.25,2.25s1.01,2.25,2.25,2.25,2.25-1.01,2.25-2.25-1.01-2.25-2.25-2.25ZM297.22,173.68c-.62,0-1.12-.5-1.12-1.12s.5-1.12,1.12-1.12,1.12.5,1.12,1.12-.5,1.12-1.12,1.12Z"/>
        <rect class="cls-1" x="298.49" y="172" width="6.89" height="1.12"/>
        <g>
          <path class="cls-1" d="M307.14,182.48c-1.24,0-2.25,1.01-2.25,2.25s1.01,2.25,2.25,2.25,2.25-1.01,2.25-2.25-1.01-2.25-2.25-2.25ZM307.14,185.85c-.62,0-1.12-.5-1.12-1.12s.5-1.12,1.12-1.12,1.12.5,1.12,1.12-.5,1.12-1.12,1.12Z"/>
          <path class="cls-1" d="M297.22,182.48c-1.24,0-2.25,1.01-2.25,2.25s1.01,2.25,2.25,2.25,2.25-1.01,2.25-2.25-1.01-2.25-2.25-2.25ZM297.22,185.85c-.62,0-1.12-.5-1.12-1.12s.5-1.12,1.12-1.12,1.12.5,1.12,1.12-.5,1.12-1.12,1.12Z"/>
          <rect class="cls-1" x="298.49" y="184.16" width="6.89" height="1.12"/>
        </g>
        <rect class="cls-1" x="292.67" y="178.05" width="9.11" height="1.12" transform="translate(118.62 475.83) rotate(-90)"/>
      </g>
    </g>
  </g>
</svg>